<?xml version="1.0" standalone="no"?>
<!DOCTYPE svg PUBLIC "-//W3C//DTD SVG 20010904//EN"
 "http://www.w3.org/TR/2001/REC-SVG-20010904/DTD/svg10.dtd">
<svg version="1.0" xmlns="http://www.w3.org/2000/svg"
 width="199.000000pt" height="80.000000pt" viewBox="0 0 199.000000 80.000000"
 preserveAspectRatio="xMidYMid meet">
<metadata>
Created by potrace 1.16, written by Peter Selinger 2001-2019
</metadata>
<g transform="translate(0.000000,80.000000) scale(0.100000,-0.100000)"
fill="#000000" stroke="none">
<path d="M0 400 l0 -400 995 0 995 0 0 400 0 400 -995 0 -995 0 0 -400z m520
154 c0 -69 2 -75 18 -68 32 15 82 8 105 -15 20 -20 22 -33 25 -156 3 -100 7
-137 18 -146 21 -18 43 -3 63 42 l19 41 -45 110 c-31 78 -41 114 -34 121 15
15 23 4 61 -90 18 -46 34 -83 35 -83 2 0 16 33 31 73 31 84 48 107 81 107 22
0 23 3 23 70 0 55 3 70 15 70 11 0 15 -16 17 -67 3 -62 5 -68 26 -71 12 -2 22
-10 22 -17 0 -7 -10 -15 -22 -17 -19 -2 -24 -10 -26 -48 -5 -66 5 -108 29
-115 43 -14 49 7 49 176 0 152 1 159 20 159 18 0 20 -7 20 -74 l0 -75 30 11
c40 13 86 -5 105 -43 8 -15 15 -55 15 -88 0 -64 14 -86 37 -56 8 12 13 48 13
102 0 67 3 83 15 83 8 0 15 -5 15 -10 0 -6 11 -3 25 6 30 20 79 11 99 -18 12
-16 16 -17 23 -5 14 24 52 39 83 32 46 -10 70 -48 70 -112 0 -60 13 -93 35
-93 8 0 15 -7 15 -15 0 -19 -29 -19 -56 0 -17 11 -22 28 -26 84 -6 80 -18 101
-59 101 -43 0 -59 -32 -59 -117 0 -58 -3 -73 -15 -73 -12 0 -15 14 -15 68 0
85 -15 116 -57 120 -45 4 -63 -26 -63 -105 0 -70 -15 -93 -60 -93 -42 0 -60
32 -60 107 0 68 -15 93 -55 93 -39 0 -55 -25 -55 -89 0 -75 -25 -111 -76 -111
-58 0 -74 26 -74 120 0 61 -3 80 -14 80 -21 0 -29 -15 -81 -154 -58 -152 -74
-176 -119 -176 -65 0 -70 13 -76 167 -3 76 -9 144 -13 151 -11 17 -63 15 -81
-4 -12 -11 -16 -36 -16 -95 0 -72 -2 -79 -20 -79 -19 0 -20 7 -20 180 0 173 1
180 20 180 18 0 20 -7 20 -76z"/>
</g>
</svg>
